# xmcd
#
# Track frame offsets: 
#        150
#        24672
#        51054
#        68952
#        94053
#        118591
#        137522
#        159534
#        186607
#        205474
#        222067
#        236492
#        252617
#        273925
#
# Disc length: 3905 seconds
#
# Revision: 0
# Processed by: cddbd v1.5.2PL0 Copyright (c) Steve Scherf et al.
# Submitted via: ExactAudioCopy v0.99pb5
#
DISCID=d20f3f0e
DTITLE=Old wave - Ide
DYEAR=2010
DGENRE=Blues
TTITLE0=01.Wsta³em lewa noga
TTITLE1=02.Ide
TTITLE2=03.Jestem wloczega
TTITLE3=04.Don Kichot
TTITLE4=05.Daj mi sile
TTITLE5=06.Po prawde
TTITLE6=07.I nic
TTITLE7=08.Wiatr w oczy
TTITLE8=09.Nie siej maku
TTITLE9=10.Testament
TTITLE10=11.Sposob na nude
TTITLE11=12.Po reklamie
TTITLE12=13.Daj sobie luz
TTITLE13=14.Domowy teatr
EXTD=
EXTT0=
EXTT1=
EXTT2=
EXTT3=
EXTT4=
EXTT5=
EXTT6=
EXTT7=
EXTT8=
EXTT9=
EXTT10=
EXTT11=
EXTT12=
EXTT13=
PLAYORDER=
